<svg version="1.1" id="Layer_1" xmlns="http://www.w3.org/2000/svg" xmlns:xlink="http://www.w3.org/1999/xlink" x="0px" y="0px"
	 width="100%" viewBox="0 0 446 446" enable-background="new 0 0 446 446" xml:space="preserve">
<path fill="#8ECEEF" opacity="1.000000" stroke="none" 
	d="
M447.000000,80.000000 
	C447.000000,175.687561 447.000000,271.375122 446.649048,367.740601 
	C446.069061,370.543915 446.035400,372.712189 445.580536,374.788147 
	C441.295044,394.346466 432.317352,411.174744 417.063538,424.517578 
	C408.813873,431.733765 399.871490,437.731567 389.462646,441.121765 
	C382.116241,443.514496 374.497284,445.070465 367.000000,447.000000 
	C271.979095,447.000000 176.958206,447.000000 81.258316,446.648438 
	C68.158409,445.194427 56.652786,441.304047 45.926071,434.991333 
	C22.341814,421.111908 8.046659,400.705780 3.006542,373.837585 
	C2.147968,369.260651 1.659465,364.614288 1.000001,360.000000 
	C1.000000,269.979095 1.000000,179.958206 1.360894,89.241020 
	C2.169327,83.122017 2.011219,77.566917 3.162912,72.298126 
	C10.515510,38.661289 34.775867,12.463929 68.842033,4.062242 
	C74.470734,2.674044 80.276215,2.002653 86.000000,1.000000 
	C178.020889,1.000000 270.041779,1.000000 362.751495,1.356837 
	C375.974609,1.980003 387.858795,5.249417 398.777344,11.071076 
	C419.744446,22.250532 434.780609,38.899426 442.280518,61.741116 
	C444.237518,67.701385 445.447144,73.907036 447.000000,80.000000 
M269.600800,377.907776 
	C305.929596,377.907776 342.258392,377.917572 378.587189,377.901794 
	C389.451416,377.897064 394.895325,372.462067 394.901093,361.604156 
	C394.919189,327.608429 394.917358,293.612732 394.901672,259.617004 
	C394.896759,248.970795 389.251373,243.244827 378.558472,243.232086 
	C341.563202,243.188019 304.567780,243.189377 267.572510,243.230164 
	C256.052155,243.242874 250.908157,248.527557 250.903549,260.156952 
	C250.890335,293.486084 250.896088,326.815216 250.899658,360.144348 
	C250.901047,373.151642 255.647507,377.897491 269.600800,377.907776 
M53.898075,175.499710 
	C53.898148,179.999756 53.890194,184.499832 53.899902,188.999863 
	C53.923077,199.741226 59.059513,204.901474 69.786598,204.904297 
	C106.952843,204.914047 144.119080,204.913910 181.285324,204.904510 
	C192.501801,204.901672 197.891312,199.572952 197.899246,188.391296 
	C197.923141,154.725021 197.922836,121.058723 197.899323,87.392456 
	C197.891205,75.779564 192.414047,70.253334 180.673386,70.235573 
	C143.840546,70.179855 107.007523,70.176483 70.174713,70.238960 
	C59.159294,70.257645 53.908005,75.617813 53.902954,86.500832 
	C53.889347,115.833824 53.898003,145.166840 53.898075,175.499710 
M250.898407,97.501968 
	C250.898666,127.996475 250.879395,158.490997 250.909821,188.985474 
	C250.920395,199.571396 256.336914,204.902786 266.953613,204.904846 
	C303.947021,204.912033 340.940399,204.911362 377.933807,204.905472 
	C389.767670,204.903595 394.903259,199.723038 394.905457,187.786453 
	C394.911591,154.459061 394.909973,121.131668 394.906281,87.804276 
	C394.904938,75.560463 389.554749,70.225449 377.225586,70.218742 
	C352.230042,70.205139 327.234497,70.214516 302.238953,70.214661 
	C290.574371,70.214729 278.909332,70.151337 267.245331,70.234375 
	C256.286987,70.312393 250.972382,75.671822 250.902679,86.505089 
	C250.881241,89.837692 250.898575,93.170540 250.898407,97.501968 
M196.134308,370.368164 
	C196.725418,367.298065 197.819168,364.229858 197.830475,361.157623 
	C197.953812,327.680817 197.916183,294.203339 197.903244,260.726074 
	C197.898590,248.696091 192.489960,243.229691 180.576828,243.219971 
	C157.759003,243.201370 134.941147,243.214111 112.123299,243.214615 
	C97.966248,243.214935 83.808304,243.119400 69.652443,243.249878 
	C59.195980,243.346252 53.913078,248.721008 53.906857,258.980377 
	C53.885841,293.623535 53.883671,328.266663 53.909233,362.909821 
	C53.916027,372.114960 59.624840,377.883362 68.810768,377.892029 
	C106.618393,377.927612 144.426102,377.888031 182.233734,377.927948 
	C187.986130,377.934021 192.633133,376.024261 196.134308,370.368164 
z"/>
<path fill="#47704C" opacity="1.000000" stroke="none" 
	d="
M85.531342,1.000000 
	C80.276215,2.002653 74.470734,2.674044 68.842033,4.062242 
	C34.775867,12.463929 10.515510,38.661289 3.162912,72.298126 
	C2.011219,77.566917 2.169327,83.122017 1.360894,88.772362 
	C1.000000,59.741032 1.000000,30.482063 1.000000,1.000000 
	C29.020500,1.000000 57.041592,1.000000 85.531342,1.000000 
z"/>
<path fill="#47704C" opacity="1.000000" stroke="none" 
	d="
M1.000001,360.468658 
	C1.659465,364.614288 2.147968,369.260651 3.006542,373.837585 
	C8.046659,400.705780 22.341814,421.111908 45.926071,434.991333 
	C56.652786,441.304047 68.158409,445.194427 80.789658,446.648438 
	C54.403370,447.000000 27.806742,447.000000 1.000000,447.000000 
	C1.000000,418.312775 1.000000,389.625061 1.000001,360.468658 
z"/>
<path fill="#47704C" opacity="1.000000" stroke="none" 
	d="
M447.000000,79.531342 
	C445.447144,73.907036 444.237518,67.701385 442.280518,61.741116 
	C434.780609,38.899426 419.744446,22.250532 398.777344,11.071076 
	C387.858795,5.249417 375.974609,1.980003 363.220154,1.356837 
	C390.924652,1.000000 418.849274,1.000000 447.000000,1.000000 
	C447.000000,27.020458 447.000000,53.041569 447.000000,79.531342 
z"/>
<path fill="#47704C" opacity="1.000000" stroke="none" 
	d="
M367.468658,447.000000 
	C374.497284,445.070465 382.116241,443.514496 389.462646,441.121765 
	C399.871490,437.731567 408.813873,431.733765 417.063538,424.517578 
	C432.317352,411.174744 441.295044,394.346466 445.580536,374.788147 
	C446.035400,372.712189 446.069061,370.543915 446.649048,368.209229 
	C447.000000,394.260681 447.000000,420.521362 447.000000,447.000000 
	C420.646179,447.000000 394.291748,447.000000 367.468658,447.000000 
z"/>
<path fill="#FEFEFF" opacity="1.000000" stroke="none" 
	d="
M269.120300,377.907654 
	C255.647507,377.897491 250.901047,373.151642 250.899658,360.144348 
	C250.896088,326.815216 250.890335,293.486084 250.903549,260.156952 
	C250.908157,248.527557 256.052155,243.242874 267.572510,243.230164 
	C304.567780,243.189377 341.563202,243.188019 378.558472,243.232086 
	C389.251373,243.244827 394.896759,248.970795 394.901672,259.617004 
	C394.917358,293.612732 394.919189,327.608429 394.901093,361.604156 
	C394.895325,372.462067 389.451416,377.897064 378.587189,377.901794 
	C342.258392,377.917572 305.929596,377.907776 269.120300,377.907654 
M309.097321,313.675171 
	C308.376190,315.387024 307.655060,317.098877 306.250153,318.952728 
	C292.144623,328.446686 286.267670,342.644897 283.044128,358.759583 
	C309.667664,358.759583 335.780334,358.759583 362.297150,358.759583 
	C361.360291,350.241791 358.561920,342.657745 354.494720,335.552612 
	C349.872620,327.478027 344.105896,320.470367 334.946869,316.251801 
	C334.352295,315.212921 333.757721,314.174011 334.003784,313.057770 
	C336.804535,312.687622 339.603302,312.301666 342.406403,311.950226 
	C352.685394,310.661407 356.544159,305.723969 353.227692,295.871338 
	C350.019318,286.339661 345.522247,277.212067 341.140472,268.124329 
	C339.928192,265.610107 337.449890,263.251648 334.967163,261.884827 
	C325.171112,256.491882 307.190857,258.601898 301.895782,272.380798 
	C300.650085,275.622284 298.659454,278.578339 297.423431,281.822571 
	C295.183411,287.702057 292.807983,293.590302 291.314575,299.677429 
	C289.717377,306.187317 291.996979,309.358459 298.487213,311.000244 
	C302.021179,311.894165 305.668060,312.341797 309.097321,313.675171 
z"/>
<path fill="#FEFEFF" opacity="1.000000" stroke="none" 
	d="
M53.897949,174.999771 
	C53.898003,145.166840 53.889347,115.833824 53.902954,86.500832 
	C53.908005,75.617813 59.159294,70.257645 70.174713,70.238960 
	C107.007523,70.176483 143.840546,70.179855 180.673386,70.235573 
	C192.414047,70.253334 197.891205,75.779564 197.899323,87.392456 
	C197.922836,121.058723 197.923141,154.725021 197.899246,188.391296 
	C197.891312,199.572952 192.501801,204.901672 181.285324,204.904510 
	C144.119080,204.913910 106.952843,204.914047 69.786598,204.904297 
	C59.059513,204.901474 53.923077,199.741226 53.899902,188.999863 
	C53.890194,184.499832 53.898148,179.999756 53.897949,174.999771 
M136.937408,142.393005 
	C140.230942,141.957718 143.537369,141.602173 146.815430,141.071335 
	C154.758652,139.785004 158.644073,135.353394 156.157852,127.920174 
	C152.557968,117.157387 147.816376,106.719032 142.855438,96.484680 
	C137.646576,85.738838 114.678886,86.182495 107.914215,96.302254 
	C100.896606,106.800400 95.551430,118.269028 93.595505,130.958252 
	C92.903030,135.450714 94.684265,138.916077 99.367668,139.997772 
	C103.380424,140.924561 107.502174,141.379440 111.582787,142.811783 
	C111.002579,144.493347 110.422379,146.174927 109.197563,148.077866 
	C94.897316,157.599045 88.735771,171.764023 85.517517,188.288879 
	C112.428040,188.288879 138.489670,188.288879 164.911713,188.288879 
	C163.666107,179.474411 160.968170,171.523926 156.534637,164.235291 
	C151.994583,156.771576 146.681671,149.993637 137.766327,146.184555 
	C137.191895,144.910812 136.617477,143.637054 136.937408,142.393005 
z"/>
<path fill="#FEFEFE" opacity="1.000000" stroke="none" 
	d="
M250.898285,97.002625 
	C250.898575,93.170540 250.881241,89.837692 250.902679,86.505089 
	C250.972382,75.671822 256.286987,70.312393 267.245331,70.234375 
	C278.909332,70.151337 290.574371,70.214729 302.238953,70.214661 
	C327.234497,70.214516 352.230042,70.205139 377.225586,70.218742 
	C389.554749,70.225449 394.904938,75.560463 394.906281,87.804276 
	C394.909973,121.131668 394.911591,154.459061 394.905457,187.786453 
	C394.903259,199.723038 389.767670,204.903595 377.933807,204.905472 
	C340.940399,204.911362 303.947021,204.912033 266.953613,204.904846 
	C256.336914,204.902786 250.920395,199.571396 250.909821,188.985474 
	C250.879395,158.490997 250.898666,127.996475 250.898285,97.002625 
M334.038055,142.540985 
	C336.833069,142.142700 339.635223,141.788361 342.421875,141.338333 
	C353.309418,139.580078 356.531342,135.003967 353.015106,124.376343 
	C350.268341,116.074387 346.415009,108.120178 342.782593,100.134605 
	C338.850464,91.490051 331.660553,88.384453 322.493866,88.793144 
	C313.522430,89.193146 306.385254,92.490471 302.326752,100.923615 
	C300.097260,105.556335 297.806427,110.173759 295.882965,114.935303 
	C294.149811,119.225731 292.557098,123.625694 291.478119,128.115692 
	C289.673004,135.627548 291.926178,139.115875 299.363220,140.803680 
	C302.751373,141.572601 306.249542,141.856888 309.175751,142.848801 
	C308.460144,144.523895 307.744537,146.199005 306.420166,148.189896 
	C292.441223,157.767975 286.235382,171.833771 283.026093,188.177643 
	C309.615173,188.177643 335.735138,188.177643 362.723389,188.177643 
	C358.645782,170.187042 352.207642,154.695602 334.754395,145.351059 
	C334.221771,144.470322 333.689117,143.589584 334.038055,142.540985 
z"/>
<path fill="#FEFEFE" opacity="1.000000" stroke="none" 
	d="
M195.967804,370.713257 
	C192.633133,376.024261 187.986130,377.934021 182.233734,377.927948 
	C144.426102,377.888031 106.618393,377.927612 68.810768,377.892029 
	C59.624840,377.883362 53.916027,372.114960 53.909233,362.909821 
	C53.883671,328.266663 53.885841,293.623535 53.906857,258.980377 
	C53.913078,248.721008 59.195980,243.346252 69.652443,243.249878 
	C83.808304,243.119400 97.966248,243.214935 112.123299,243.214615 
	C134.941147,243.214111 157.759003,243.201370 180.576828,243.219971 
	C192.489960,243.229691 197.898590,248.696091 197.903244,260.726074 
	C197.916183,294.203339 197.953812,327.680817 197.830475,361.157623 
	C197.819168,364.229858 196.725418,367.298065 195.967804,370.713257 
M136.519394,314.539795 
	C140.139511,314.023285 143.779114,313.615082 147.375641,312.967560 
	C154.671127,311.654144 158.339050,307.227203 156.264221,300.233582 
	C153.591156,291.223511 150.013962,282.411346 146.059814,273.868683 
	C140.616989,262.109863 130.987030,258.179901 118.488823,261.653656 
	C112.009605,263.454468 107.090843,267.121399 104.598434,273.465179 
	C100.852440,282.999542 96.817657,292.464661 93.861351,302.248016 
	C92.164673,307.862854 94.364838,310.519684 100.141144,312.149078 
	C103.950218,313.223541 107.957428,313.595581 111.491295,314.924194 
	C110.936279,316.563324 110.381264,318.202454 109.175713,320.047546 
	C94.861656,329.527100 88.770775,343.714386 85.527321,360.188904 
	C112.425804,360.188904 138.536438,360.188904 165.663025,360.188904 
	C163.539520,353.747528 162.092728,347.768738 159.632553,342.240967 
	C155.092422,332.039673 148.732773,323.218262 137.653763,318.017426 
	C137.009720,316.960876 136.365692,315.904358 136.519394,314.539795 
z"/>
<path fill="#695ACB" opacity="1.000000" stroke="none" 
	d="
M335.143890,316.825195 
	C344.105896,320.470367 349.872620,327.478027 354.494720,335.552612 
	C358.561920,342.657745 361.360291,350.241791 362.297150,358.759583 
	C335.780334,358.759583 309.667664,358.759583 283.044128,358.759583 
	C286.267670,342.644897 292.144623,328.446686 306.774719,319.188599 
	C311.082306,326.517242 319.155579,329.154602 327.857513,326.168518 
	C332.331970,324.633087 335.311035,321.964355 335.143890,316.825195 
z"/>
<path fill="#153345" opacity="1.000000" stroke="none" 
	d="
M309.264008,312.990723 
	C305.668060,312.341797 302.021179,311.894165 298.487213,311.000244 
	C291.996979,309.358459 289.717377,306.187317 291.314575,299.677429 
	C292.807983,293.590302 295.183411,287.702057 297.423431,281.822571 
	C298.659454,278.578339 300.650085,275.622284 301.895782,272.380798 
	C307.190857,258.601898 325.171112,256.491882 334.967163,261.884827 
	C337.449890,263.251648 339.928192,265.610107 341.140472,268.124329 
	C345.522247,277.212067 350.019318,286.339661 353.227692,295.871338 
	C356.544159,305.723969 352.685394,310.661407 342.406403,311.950226 
	C339.603302,312.301666 336.804535,312.687622 333.153015,313.063904 
	C331.146942,313.073029 329.991638,313.076080 328.716522,312.657043 
	C328.596680,310.642853 328.596680,309.050781 328.596680,307.261780 
	C323.763824,307.261780 319.391571,307.261780 314.806213,307.261780 
	C314.517456,309.173553 314.227814,311.091431 313.547211,313.013489 
	C311.858856,313.008667 310.561432,312.999695 309.264008,312.990723 
M319.005096,279.692139 
	C315.108276,280.209503 311.211456,280.726868 307.005035,281.285339 
	C307.005035,285.235107 306.983093,289.024048 307.009521,292.812683 
	C307.066498,300.984375 312.039185,305.841797 320.472198,305.994843 
	C331.108459,306.187836 336.503510,301.931549 336.825714,293.092468 
	C337.070557,286.375244 337.621704,279.579254 332.089630,274.911469 
	C328.065521,276.388916 323.930664,277.907043 319.005096,279.692139 
M303.077484,294.887451 
	C306.972626,292.856506 306.088135,289.389038 304.573364,286.827606 
	C303.955017,285.782043 300.328217,285.810944 298.465424,286.469330 
	C297.340698,286.866852 295.970490,290.259338 296.456055,290.835754 
	C297.948456,292.607391 300.282013,293.670502 303.077484,294.887451 
M347.292542,290.479736 
	C347.200897,286.626984 344.874054,285.163757 341.425293,285.481598 
	C337.582642,285.835754 337.804779,288.955505 338.279297,291.518280 
	C338.515076,292.791565 339.924988,294.509583 341.113007,294.812164 
	C343.945679,295.533691 346.360687,294.536255 347.292542,290.479736 
z"/>
<path fill="#3C1078" opacity="1.000000" stroke="none" 
	d="
M309.180664,313.332947 
	C310.561432,312.999695 311.858856,313.008667 313.627563,313.390503 
	C310.968689,319.503754 312.262573,321.854065 319.090607,322.823730 
	C319.417572,322.870178 319.777771,322.979187 320.074860,322.893646 
	C323.315521,321.960266 326.722382,321.323547 329.638214,319.769592 
	C330.251343,319.442810 329.046875,315.714264 328.696198,313.550598 
	C328.672546,313.404846 328.786438,313.236786 328.836365,313.079102 
	C329.991638,313.076080 331.146942,313.073029 332.732666,313.102570 
	C333.757721,314.174011 334.352295,315.212921 335.045380,316.538513 
	C335.311035,321.964355 332.331970,324.633087 327.857513,326.168518 
	C319.155579,329.154602 311.082306,326.517242 307.116608,319.117584 
	C307.655060,317.098877 308.376190,315.387024 309.180664,313.332947 
z"/>
<path fill="#6B5CCC" opacity="1.000000" stroke="none" 
	d="
M138.134796,146.669189 
	C146.681671,149.993637 151.994583,156.771576 156.534637,164.235291 
	C160.968170,171.523926 163.666107,179.474411 164.911713,188.288879 
	C138.489670,188.288879 112.428040,188.288879 85.517517,188.288879 
	C88.735771,171.764023 94.897316,157.599045 109.566544,148.339371 
	C112.118629,154.252457 117.191856,157.200775 124.221947,156.903427 
	C132.095901,156.570419 135.950241,153.735184 138.134796,146.669189 
z"/>
<path fill="#163446" opacity="1.000000" stroke="none" 
	d="
M111.575722,142.043030 
	C107.502174,141.379440 103.380424,140.924561 99.367668,139.997772 
	C94.684265,138.916077 92.903030,135.450714 93.595505,130.958252 
	C95.551430,118.269028 100.896606,106.800400 107.914215,96.302254 
	C114.678886,86.182495 137.646576,85.738838 142.855438,96.484680 
	C147.816376,106.719032 152.557968,117.157387 156.157852,127.920174 
	C158.644073,135.353394 154.758652,139.785004 146.815430,141.071335 
	C143.537369,141.602173 140.230942,141.957718 136.164185,142.314850 
	C133.975784,142.462494 132.560593,142.688324 131.077820,142.508636 
	C130.436111,139.859207 129.861969,137.615280 129.260803,135.265717 
	C136.234268,133.123215 138.898743,129.580338 139.197144,121.892601 
	C139.455551,115.235550 139.384781,108.783463 134.208740,103.687088 
	C128.500580,108.411072 121.287025,109.393761 113.962379,110.209259 
	C112.444412,110.378273 110.064049,111.247902 109.732864,112.309776 
	C106.754929,121.857948 110.241234,130.594147 117.842728,135.106018 
	C117.411926,137.682877 117.036087,139.930984 116.283493,142.154602 
	C114.463066,142.101074 113.019394,142.072052 111.575722,142.043030 
M102.888123,124.412895 
	C104.584923,123.521683 107.205315,122.995186 107.738678,121.644539 
	C108.368629,120.049286 107.835960,116.948662 106.621765,115.967010 
	C105.418396,114.994087 102.390656,115.185478 100.782455,116.036568 
	C97.595001,117.723434 98.355263,121.441795 102.888123,124.412895 
M145.168427,124.494408 
	C148.544281,124.041519 150.606308,121.983986 149.555969,118.795090 
	C149.011627,117.142426 146.493027,115.704536 144.578369,115.131088 
	C143.684250,114.863289 141.184052,116.748009 141.023727,117.884483 
	C140.649002,120.540680 139.615814,124.211143 145.168427,124.494408 
z"/>
<path fill="#3F167A" opacity="1.000000" stroke="none" 
	d="
M131.145401,142.914154 
	C132.560593,142.688324 133.975784,142.462494 135.717010,142.299988 
	C136.617477,143.637054 137.191895,144.910812 137.950562,146.426880 
	C135.950241,153.735184 132.095901,156.570419 124.221947,156.903427 
	C117.191856,157.200775 112.118629,154.252457 109.888855,148.228683 
	C110.422379,146.174927 111.002579,144.493347 111.579254,142.427399 
	C113.019394,142.072052 114.463066,142.101074 116.374908,142.480972 
	C113.706825,149.507584 115.667427,152.410507 123.578369,152.281555 
	C125.980873,152.242371 128.508636,151.572159 130.721466,150.602951 
	C132.841080,149.674576 134.176178,147.946259 132.013763,145.510818 
	C131.456421,144.883118 131.420731,143.792252 131.145401,142.914154 
z"/>
<path fill="#EAB83A" opacity="1.000000" stroke="none" 
	d="
M335.084351,146.065506 
	C352.207642,154.695602 358.645782,170.187042 362.723389,188.177643 
	C335.735138,188.177643 309.615173,188.177643 283.026093,188.177643 
	C286.235382,171.833771 292.441223,157.767975 306.830505,148.380569 
	C310.305695,155.718033 318.508636,158.677475 327.572754,155.809464 
	C332.280670,154.319763 335.465271,151.536285 335.084351,146.065506 
z"/>
<path fill="#163445" opacity="1.000000" stroke="none" 
	d="
M309.697815,142.360992 
	C306.249542,141.856888 302.751373,141.572601 299.363220,140.803680 
	C291.926178,139.115875 289.673004,135.627548 291.478119,128.115692 
	C292.557098,123.625694 294.149811,119.225731 295.882965,114.935303 
	C297.806427,110.173759 300.097260,105.556335 302.326752,100.923615 
	C306.385254,92.490471 313.522430,89.193146 322.493866,88.793144 
	C331.660553,88.384453 338.850464,91.490051 342.782593,100.134605 
	C346.415009,108.120178 350.268341,116.074387 353.015106,124.376343 
	C356.531342,135.003967 353.309418,139.580078 342.421875,141.338333 
	C339.635223,141.788361 336.833069,142.142700 333.360901,142.500946 
	C331.395142,142.593567 330.106476,142.726212 328.703918,142.467239 
	C328.514404,140.460510 328.438812,138.845398 328.423584,138.519882 
	C326.907074,136.858765 326.111267,135.987061 325.684906,135.159042 
	C333.214600,133.527802 336.495117,129.460785 336.860260,122.369896 
	C337.202850,115.717438 337.198853,109.241554 332.841034,104.972588 
	C324.185791,107.201553 315.809143,109.358757 307.007080,111.625534 
	C307.007080,114.986450 306.955109,118.960403 307.018433,122.932518 
	C307.133026,130.122238 311.219086,134.354309 318.738373,135.489410 
	C317.421570,136.327164 316.052185,136.791168 314.689209,137.256195 
	C314.456818,139.018097 314.217957,140.779022 313.612030,142.514404 
	C312.062561,142.446243 310.880188,142.403625 309.697815,142.360992 
M298.535309,115.721138 
	C295.620697,119.244301 295.589996,122.545967 298.814911,123.795868 
	C300.448059,124.428841 303.678497,124.450439 304.258514,123.531425 
	C305.336121,121.824135 305.843414,118.783974 304.982635,117.138718 
	C304.312256,115.857323 301.206726,115.849945 298.535309,115.721138 
M345.507568,115.965492 
	C343.252625,116.088127 340.183533,115.385292 338.979126,116.573128 
	C337.848663,117.688087 337.968018,121.209694 338.918976,122.890717 
	C339.541718,123.991493 342.967804,124.521294 344.533875,123.864861 
	C347.926361,122.442894 348.148499,119.537674 345.507568,115.965492 
z"/>
<path fill="#8B780E" opacity="1.000000" stroke="none" 
	d="
M328.817841,142.858871 
	C330.106476,142.726212 331.395142,142.593567 332.920135,142.584900 
	C333.689117,143.589584 334.221771,144.470322 334.919373,145.708282 
	C335.465271,151.536285 332.280670,154.319763 327.572754,155.809464 
	C318.508636,158.677475 310.305695,155.718033 307.134888,148.222672 
	C307.744537,146.199005 308.460144,144.523895 309.436768,142.604904 
	C310.880188,142.403625 312.062561,142.446243 313.691589,142.844254 
	C313.304871,145.773209 309.525208,148.527206 314.425385,150.797745 
	C319.031158,152.931839 323.734802,152.995239 328.286652,150.632507 
	C330.440430,149.514557 331.685791,147.962341 329.600128,145.522842 
	C329.051392,144.881058 329.063354,143.759888 328.817841,142.858871 
z"/>
<path fill="#EAB83A" opacity="1.000000" stroke="none" 
	d="
M138.082520,318.418518 
	C148.732773,323.218262 155.092422,332.039673 159.632553,342.240967 
	C162.092728,347.768738 163.539520,353.747528 165.663025,360.188904 
	C138.536438,360.188904 112.425804,360.188904 85.527321,360.188904 
	C88.770775,343.714386 94.861656,329.527100 109.558884,320.315186 
	C112.251198,326.378906 117.367516,329.244171 124.599586,328.791504 
	C132.575012,328.292328 136.281815,325.440552 138.082520,318.418518 
z"/>
<path fill="#173546" opacity="1.000000" stroke="none" 
	d="
M111.875916,314.282104 
	C107.957428,313.595581 103.950218,313.223541 100.141144,312.149078 
	C94.364838,310.519684 92.164673,307.862854 93.861351,302.248016 
	C96.817657,292.464661 100.852440,282.999542 104.598434,273.465179 
	C107.090843,267.121399 112.009605,263.454468 118.488823,261.653656 
	C130.987030,258.179901 140.616989,262.109863 146.059814,273.868683 
	C150.013962,282.411346 153.591156,291.223511 156.264221,300.233582 
	C158.339050,307.227203 154.671127,311.654144 147.375641,312.967560 
	C143.779114,313.615082 140.139511,314.023285 135.865479,314.556335 
	C133.856827,314.662994 132.502075,314.753143 131.082367,314.400330 
	C131.017395,312.335968 131.017395,310.714539 131.017395,308.757507 
	C126.141380,308.757507 121.686050,308.757507 117.123184,308.757507 
	C116.960114,310.697632 116.808044,312.506897 116.301201,314.300842 
	C114.589592,314.284424 113.232750,314.283264 111.875916,314.282104 
M111.855125,302.377808 
	C116.823006,307.351074 125.187988,309.139435 131.535400,306.419067 
	C136.188721,304.424744 138.955276,300.918488 139.112289,295.710510 
	C139.327164,288.582977 140.181610,281.280457 134.161438,275.692688 
	C127.243637,281.370117 118.485344,281.577240 108.766457,282.632019 
	C109.647507,289.203217 110.489723,295.484741 111.855125,302.377808 
M147.563095,287.571716 
	C146.947784,287.357361 146.210007,286.813324 145.739243,286.988190 
	C144.080002,287.604462 141.426407,288.193481 141.148285,289.296661 
	C140.652420,291.263489 141.044373,294.000916 142.190964,295.617523 
	C142.817337,296.500641 146.491653,296.500488 147.464508,295.546112 
	C148.775391,294.260071 148.891861,291.687805 149.317734,289.625580 
	C149.404388,289.205933 148.589447,288.600067 147.563095,287.571716 
M107.802559,294.691437 
	C107.579407,291.986694 109.761047,288.245819 105.457092,287.237488 
	C103.754044,286.838470 101.032326,287.752502 99.869987,289.050079 
	C98.956345,290.070038 99.040520,293.035248 99.889557,294.364838 
	C101.681931,297.171631 104.518776,297.117767 107.802559,294.691437 
z"/>
<path fill="#8B780E" opacity="1.000000" stroke="none" 
	d="
M111.683609,314.603149 
	C113.232750,314.283264 114.589592,314.284424 116.387085,314.616577 
	C113.541031,321.131378 115.044266,323.708649 122.186790,324.130646 
	C122.515236,324.150055 122.869064,324.218384 123.171295,324.129181 
	C126.233337,323.225403 129.501343,322.662476 132.187897,321.102264 
	C132.834579,320.726715 131.545959,317.018738 131.147339,314.843262 
	C132.502075,314.753143 133.856827,314.662994 135.466614,314.710327 
	C136.365692,315.904358 137.009720,316.960876 137.868134,318.217957 
	C136.281815,325.440552 132.575012,328.292328 124.599586,328.791504 
	C117.367516,329.244171 112.251198,326.378906 109.884155,320.212219 
	C110.381264,318.202454 110.936279,316.563324 111.683609,314.603149 
z"/>
<path fill="#FCFCFC" opacity="1.000000" stroke="none" 
	d="
M319.400452,279.558655 
	C323.930664,277.907043 328.065521,276.388916 332.089630,274.911469 
	C337.621704,279.579254 337.070557,286.375244 336.825714,293.092468 
	C336.503510,301.931549 331.108459,306.187836 320.472198,305.994843 
	C312.039185,305.841797 307.066498,300.984375 307.009521,292.812683 
	C306.983093,289.024048 307.005035,285.235107 307.005035,281.285339 
	C311.211456,280.726868 315.108276,280.209503 319.400452,279.558655 
z"/>
<path fill="#F0F0F4" opacity="1.000000" stroke="none" 
	d="
M328.716522,312.657013 
	C328.786438,313.236786 328.672546,313.404846 328.696198,313.550598 
	C329.046875,315.714264 330.251343,319.442810 329.638214,319.769592 
	C326.722382,321.323547 323.315521,321.960266 320.074860,322.893646 
	C319.777771,322.979187 319.417572,322.870178 319.090607,322.823730 
	C312.262573,321.854065 310.968689,319.503754 314.018494,313.386353 
	C314.227814,311.091431 314.517456,309.173553 314.806213,307.261780 
	C319.391571,307.261780 323.763824,307.261780 328.596680,307.261780 
	C328.596680,309.050781 328.596680,310.642853 328.716522,312.657013 
z"/>
<path fill="#EEF0F1" opacity="1.000000" stroke="none" 
	d="
M302.683044,294.948242 
	C300.282013,293.670502 297.948456,292.607391 296.456055,290.835754 
	C295.970490,290.259338 297.340698,286.866852 298.465424,286.469330 
	C300.328217,285.810944 303.955017,285.782043 304.573364,286.827606 
	C306.088135,289.389038 306.972626,292.856506 302.683044,294.948242 
z"/>
<path fill="#F0F2F3" opacity="1.000000" stroke="none" 
	d="
M347.227905,290.880005 
	C346.360687,294.536255 343.945679,295.533691 341.113007,294.812164 
	C339.924988,294.509583 338.515076,292.791565 338.279297,291.518280 
	C337.804779,288.955505 337.582642,285.835754 341.425293,285.481598 
	C344.874054,285.163757 347.200897,286.626984 347.227905,290.880005 
z"/>
<path fill="#FDFDFE" opacity="1.000000" stroke="none" 
	d="
M131.077820,142.508636 
	C131.420731,143.792252 131.456421,144.883118 132.013763,145.510818 
	C134.176178,147.946259 132.841080,149.674576 130.721466,150.602951 
	C128.508636,151.572159 125.980873,152.242371 123.578369,152.281555 
	C115.667427,152.410507 113.706825,149.507584 116.751663,142.505463 
	C117.036087,139.930984 117.411926,137.682877 117.842728,135.106018 
	C110.241234,130.594147 106.754929,121.857948 109.732864,112.309776 
	C110.064049,111.247902 112.444412,110.378273 113.962379,110.209259 
	C121.287025,109.393761 128.500580,108.411072 134.208740,103.687088 
	C139.384781,108.783463 139.455551,115.235550 139.197144,121.892601 
	C138.898743,129.580338 136.234268,133.123215 129.260803,135.265717 
	C129.861969,137.615280 130.436111,139.859207 131.077820,142.508636 
z"/>
<path fill="#F6F7F8" opacity="1.000000" stroke="none" 
	d="
M102.516998,124.320816 
	C98.355263,121.441795 97.595001,117.723434 100.782455,116.036568 
	C102.390656,115.185478 105.418396,114.994087 106.621765,115.967010 
	C107.835960,116.948662 108.368629,120.049286 107.738678,121.644539 
	C107.205315,122.995186 104.584923,123.521683 102.516998,124.320816 
z"/>
<path fill="#F3F5F5" opacity="1.000000" stroke="none" 
	d="
M144.784027,124.492584 
	C139.615814,124.211143 140.649002,120.540680 141.023727,117.884483 
	C141.184052,116.748009 143.684250,114.863289 144.578369,115.131088 
	C146.493027,115.704536 149.011627,117.142426 149.555969,118.795090 
	C150.606308,121.983986 148.544281,124.041519 144.784027,124.492584 
z"/>
<path fill="#FCFCFC" opacity="1.000000" stroke="none" 
	d="
M318.685791,135.115662 
	C311.219086,134.354309 307.133026,130.122238 307.018433,122.932518 
	C306.955109,118.960403 307.007080,114.986450 307.007080,111.625534 
	C315.809143,109.358757 324.185791,107.201553 332.841034,104.972588 
	C337.198853,109.241554 337.202850,115.717438 336.860260,122.369896 
	C336.495117,129.460785 333.214600,133.527802 325.212555,135.111938 
	C322.475739,135.052658 320.580780,135.084152 318.685791,135.115662 
z"/>
<path fill="#F7F8F6" opacity="1.000000" stroke="none" 
	d="
M318.738373,135.489410 
	C320.580780,135.084152 322.475739,135.052658 324.843079,135.068253 
	C326.111267,135.987061 326.907074,136.858765 328.423584,138.519882 
	C328.438812,138.845398 328.514404,140.460510 328.703918,142.467239 
	C329.063354,143.759888 329.051392,144.881058 329.600128,145.522842 
	C331.685791,147.962341 330.440430,149.514557 328.286652,150.632507 
	C323.734802,152.995239 319.031158,152.931839 314.425385,150.797745 
	C309.525208,148.527206 313.304871,145.773209 314.058655,142.869781 
	C314.217957,140.779022 314.456818,139.018097 314.689209,137.256195 
	C316.052185,136.791168 317.421570,136.327164 318.738373,135.489410 
z"/>
<path fill="#EDF0F1" opacity="1.000000" stroke="none" 
	d="
M298.859375,115.498756 
	C301.206726,115.849945 304.312256,115.857323 304.982635,117.138718 
	C305.843414,118.783974 305.336121,121.824135 304.258514,123.531425 
	C303.678497,124.450439 300.448059,124.428841 298.814911,123.795868 
	C295.589996,122.545967 295.620697,119.244301 298.859375,115.498756 
z"/>
<path fill="#F2F3F4" opacity="1.000000" stroke="none" 
	d="
M345.807800,116.245872 
	C348.148499,119.537674 347.926361,122.442894 344.533875,123.864861 
	C342.967804,124.521294 339.541718,123.991493 338.918976,122.890717 
	C337.968018,121.209694 337.848663,117.688087 338.979126,116.573128 
	C340.183533,115.385292 343.252625,116.088127 345.807800,116.245872 
z"/>
<path fill="#FDFDFD" opacity="1.000000" stroke="none" 
	d="
M111.593536,302.072052 
	C110.489723,295.484741 109.647507,289.203217 108.766457,282.632019 
	C118.485344,281.577240 127.243637,281.370117 134.161438,275.692688 
	C140.181610,281.280457 139.327164,288.582977 139.112289,295.710510 
	C138.955276,300.918488 136.188721,304.424744 131.535400,306.419067 
	C125.187988,309.139435 116.823006,307.351074 111.593536,302.072052 
z"/>
<path fill="#FCFCFB" opacity="1.000000" stroke="none" 
	d="
M131.082367,314.400360 
	C131.545959,317.018738 132.834579,320.726715 132.187897,321.102264 
	C129.501343,322.662476 126.233337,323.225403 123.171295,324.129181 
	C122.869064,324.218384 122.515236,324.150055 122.186790,324.130646 
	C115.044266,323.708649 113.541031,321.131378 116.741852,314.631897 
	C116.808044,312.506897 116.960114,310.697632 117.123184,308.757507 
	C121.686050,308.757507 126.141380,308.757507 131.017395,308.757507 
	C131.017395,310.714539 131.017395,312.335968 131.082367,314.400360 
z"/>
<path fill="#F1F3F4" opacity="1.000000" stroke="none" 
	d="
M147.876617,287.825867 
	C148.589447,288.600067 149.404388,289.205933 149.317734,289.625580 
	C148.891861,291.687805 148.775391,294.260071 147.464508,295.546112 
	C146.491653,296.500488 142.817337,296.500641 142.190964,295.617523 
	C141.044373,294.000916 140.652420,291.263489 141.148285,289.296661 
	C141.426407,288.193481 144.080002,287.604462 145.739243,286.988190 
	C146.210007,286.813324 146.947784,287.357361 147.876617,287.825867 
z"/>
<path fill="#F6F7F8" opacity="1.000000" stroke="none" 
	d="
M107.524796,294.976624 
	C104.518776,297.117767 101.681931,297.171631 99.889557,294.364838 
	C99.040520,293.035248 98.956345,290.070038 99.869987,289.050079 
	C101.032326,287.752502 103.754044,286.838470 105.457092,287.237488 
	C109.761047,288.245819 107.579407,291.986694 107.524796,294.976624 
z"/>
</svg>