<?xml version="1.0" standalone="no"?>
<!DOCTYPE svg PUBLIC "-//W3C//DTD SVG 20010904//EN"
 "http://www.w3.org/TR/2001/REC-SVG-20010904/DTD/svg10.dtd">
<svg version="1.0" xmlns="http://www.w3.org/2000/svg"
 width="225.000000pt" height="225.000000pt" viewBox="0 0 225.000000 225.000000"
 preserveAspectRatio="xMidYMid meet">

<g transform="translate(0.000000,225.000000) scale(0.100000,-0.100000)"
fill="#000000" stroke="none">
<path d="M975 2239 c-160 -20 -334 -87 -479 -183 -98 -65 -248 -217 -312 -316
-246 -381 -242 -865 10 -1244 64 -96 212 -242 313 -309 387 -256 911 -244
1279 31 570 425 621 1235 108 1722 -248 236 -574 342 -919 299z m385 -107
c312 -81 552 -272 689 -548 296 -596 -32 -1297 -684 -1464 -125 -33 -350 -34
-475 -3 -384 96 -670 381 -771 769 -33 128 -33 350 0 478 109 418 437 719 857
786 91 14 297 4 384 -18z"/>
<path d="M1045 2059 c-133 -20 -226 -68 -325 -168 -117 -118 -170 -239 -170
-387 0 -57 4 -77 23 -104 46 -68 136 -89 207 -49 48 27 76 78 83 151 11 112
82 204 181 233 63 19 99 19 162 0 125 -37 209 -186 175 -312 -29 -109 -127
-190 -240 -200 -73 -7 -128 -37 -152 -83 -17 -30 -19 -59 -19 -235 0 -182 2
-203 20 -233 62 -102 223 -95 274 11 12 26 16 63 16 139 l0 103 48 17 c162 58
311 223 357 398 19 71 19 219 0 290 -52 194 -215 361 -406 413 -73 21 -162 27
-234 16z m150 -89 c182 -27 341 -162 395 -337 29 -93 27 -217 -4 -304 -52
-149 -176 -270 -316 -310 -78 -22 -80 -25 -80 -167 0 -103 -3 -129 -17 -144
-20 -22 -70 -23 -95 -1 -16 14 -18 35 -18 200 0 170 1 184 20 203 12 12 33 20
53 20 46 0 133 27 176 55 218 140 223 452 10 594 -221 147 -518 5 -546 -260
-7 -70 -28 -99 -70 -99 -45 0 -63 26 -63 90 0 212 184 423 400 459 75 12 76
12 155 1z"/>
<path d="M170 1155 c-19 -22 -7 -207 14 -240 19 -30 47 -32 70 -7 14 16 15 27
6 72 -5 29 -10 77 -10 106 0 56 -17 84 -49 84 -10 0 -24 -7 -31 -15z"/>
<path d="M256 765 c-22 -22 -21 -28 19 -104 82 -156 237 -308 399 -392 67 -36
82 -40 103 -30 18 9 24 18 21 38 -2 22 -18 35 -86 74 -163 94 -260 190 -355
350 -46 78 -71 94 -101 64z"/>
<path d="M1076 510 c-65 -21 -106 -83 -106 -163 0 -160 198 -220 287 -87 32
46 32 134 1 180 -13 18 -34 41 -48 51 -30 22 -95 31 -134 19z m92 -100 c33
-31 30 -92 -4 -119 -15 -12 -32 -21 -39 -21 -7 0 -24 9 -39 21 -51 40 -23 139
39 139 12 0 31 -9 43 -20z"/>
</g>
</svg>
