<svg xmlns="http://www.w3.org/2000/svg" viewBox="0 0 498.2 498.2"><defs><style>.cls-1{fill:#223d72;}.cls-2{fill:#eee9e6;}.cls-3{fill:#eb3a26;}.cls-4{fill:#303f67;}</style></defs><title>english</title><g id="Layer_2" data-name="Layer 2"><g id="Layer_7" data-name="Layer 7"><path class="cls-1" d="M7.4,189.3c33-133.6,168-215,301.5-181.9s215,168,182,301.5-168.1,215-301.6,181.9-215-168-181.9-301.5" transform="translate(0)"/><path class="cls-2" d="M425.8,73.5,325.6,140.3V12.1c-5.4-1.7-11-3.3-16.7-4.7a247.3,247.3,0,0,0-137,4.9v128L72.2,73.8a245.9,245.9,0,0,0-54,82.1l26.4,17.6H11.8c-1.6,5.2-3.1,10.4-4.4,15.8a246.8,246.8,0,0,0,5.2,137.9H45.2L19.1,344.6a250.1,250.1,0,0,0,54.8,81.5l98-65.3V485.9c5.7,1.8,11.5,3.5,17.4,4.9a247.6,247.6,0,0,0,136.3-4.7V360.8L424,426.4A247,247,0,0,0,479,345l-26.7-17.8h33.3c2-6,3.7-12.1,5.3-18.3a248.2,248.2,0,0,0-4.5-135.4H453l26.9-18a250.8,250.8,0,0,0-54.1-82" transform="translate(0)"/><path class="cls-3" d="M133.6,173.5,41.1,112a247.6,247.6,0,0,0-16.6,29.4l48.3,32.1Zm323.1-62a253.3,253.3,0,0,0-20.5-26.8L325.6,158.2v15.3h37.9ZM41.8,387.2a253,253,0,0,0,20.6,26.7l109.5-72.8V327.2H132ZM494.4,205.5H293.6V4.1a248.1,248.1,0,0,0-89.7,0V205.5H3.9a247.4,247.4,0,0,0,.4,89.6H203.9V494a248.1,248.1,0,0,0,89.7.2V295.1H493.9a250,250,0,0,0,.5-89.6M365.6,327.2l90.7,60.3A241,241,0,0,0,473,358.2l-46.5-31Z" transform="translate(0)"/><path class="cls-4" d="M325.6,38h0V54.2a28.4,28.4,0,0,0,1.5-8.7,18.6,18.6,0,0,0-1.5-7.5" transform="translate(0)"/></g></g></svg>