<svg xmlns="http://www.w3.org/2000/svg" viewBox="0 0 219.4 72"><defs><style>.cls-1{fill:#fff;}.cls-2{fill:#e73d30;}.cls-3{fill:#2ea34a;}.cls-4{fill:#5078bb;}.cls-5{fill:#f8b518;}.cls-6{fill:none;stroke:#868686;stroke-miterlimit:10;stroke-width:0.75px;}.cls-7{font-size:16.47px;}.cls-10,.cls-7,.cls-8{fill:#5f6369;}.cls-7,.cls-8{font-family:Poppins-Medium, Poppins;font-weight:500;}.cls-8{font-size:31.26px;}.cls-9{fill:#f8bb15;}.cls-10{font-size:8.96px;font-family:Poppins-Regular, Poppins;}</style></defs><title>Asset 4</title><g id="Layer_2" data-name="Layer 2"><g id="Layer_1-2" data-name="Layer 1"><rect class="cls-1" width="219.4" height="61.92"/><path class="cls-2" d="M20.7,23h0a.3.3,0,0,1,.1-.2l1.2-2,1.3-1.7,1.4-1.4a13.7,13.7,0,0,1,2.4-1.8l1.2-.7.9-.5,1.3-.5,1.3-.4.9-.2h1.9a.1.1,0,0,0,.1-.1h3.7a.1.1,0,0,1,.1.1h1.3l.6.2,1.5.3,1.5.6,1.5.7a16.4,16.4,0,0,1,2.2,1.4l1.3,1.1a.1.1,0,0,0,.1.1h-.1l-.8.8-3,3-1.1,1.1h-.2l-1-.9-1-.6-1.7-.7-.7-.2H34.2l-.6.2-.7.2-1.1.5a8,8,0,0,0-2.1,1.5,12.9,12.9,0,0,0-1.6,1.8,11,11,0,0,0-.9,1.4l-.6,1.4h-.2l-1.8-1.4-2.2-1.7-1.6-1.3C20.7,23.1,20.7,23.1,20.7,23Z"/><path class="cls-3" d="M26.6,34.5h0l.6,1.3a7.6,7.6,0,0,0,1.2,1.9l.9,1a7.6,7.6,0,0,0,2.3,1.7,7.2,7.2,0,0,0,2,.9l.8.2h4.8l.7-.2a10.2,10.2,0,0,0,2.2-.9l.5-.3h0l.5.3,2.5,2,2.7,2.1a.1.1,0,0,1,.1.1c-.1,0-.1,0-.1.1l-.3.2a10.9,10.9,0,0,1-1.7,1.3l-1.8,1-2,.8-1.4.4H32.2l-1.4-.5-1.2-.4a15.1,15.1,0,0,1-2.2-1.1l-2.3-1.7-1.4-1.4a13.3,13.3,0,0,1-2.1-2.6l-.9-1.5h0c0-.2.2-.2.3-.3l4.3-3.3,1.1-1Z"/><path class="cls-4" d="M48.4,44.6h-.3l-.3-.2-.2-.2h-.2a.1.1,0,0,0-.1-.1l-.3-.3h-.2l-.3-.2a.1.1,0,0,0-.1-.1l-.2-.2H46l-.3-.2c0-.1-.1-.1-.1-.2l-.3-.2a.1.1,0,0,1-.1-.1c-.1-.1-.2-.1-.2-.2h-.2l-.3-.2-.3-.2-.3-.3h-.6a.1.1,0,0,0-.1-.1H43l-.3-.2a.1.1,0,0,0-.1-.1h.3a1,1,0,0,1,.5-.4L44,39l.8-.9a2.5,2.5,0,0,1,.4-.7l.4-.8.3-.9a2.4,2.4,0,0,0,.2-.8v-.2H36.6V28H53.4v.4a.4.4,0,0,0,.1.3v.2h0v.2c0,.1.1.1.1.2h0v.5h0v.4h0a4.9,4.9,0,0,1,0,1.7h0v.5h0v.3h0v.2h-.1v.2h0V34h-.1v.2h0V35a.1.1,0,0,1-.1.1,1.3,1.3,0,0,1-.1.6,3,3,0,0,1-.2,1,9.8,9.8,0,0,1-.5,1.6l-.3.8-.3.5-.3.7-.3.6-.6,1L49.8,43l-.5.6h0l-.8.7c0,.1-.1.1-.1.2Z"/><path class="cls-5" d="M26.6,34.5l-.3.2-.9.7-.9.7-1.2.9-.9.8-.6.4-.7.5-.4.3h0c-.1,0-.1,0-.1-.1l-.4-.9-.6-1.7-.3-1.1c-.1-.2-.1-.4-.2-.6a.7.7,0,0,0-.1-.5v-.7h-.1v-.2h0v-.4h-.1v-.8h0V30.4h0v-.4h0c0-.1,0-.2.1-.2h0v-.2h0a.3.3,0,0,1,.1-.2V28a.9.9,0,0,0,.1-.5,6.4,6.4,0,0,0,.2-.7c.1-.3.1-.6.2-.9l.5-1.5.3-.7.3-.6a.1.1,0,0,0,.1-.1h.2l.3.2.2.2.3.2h.2c0,.1,0,.1.1.1l.3.2a.1.1,0,0,0,.1.1l.3.3h.2l.2.2s.2.1.2.2h.2c.1,0,.1.1.2.2h.2l.3.2a.1.1,0,0,0,.1.1l.2.2h.2l.3.3h.2l.3.2h.2l.3.2.3.3a7961314590657.3,7961314590657.3,0,0,0,.2.2h.1l-.3.8a1.1,1.1,0,0,1-.1.5v.4a.3.3,0,0,0-.1.2v.3h0v.4a.1.1,0,0,1-.1.1h0v.7h0c0,.1.1.2.1.4h0v.2h0v.2h0c0,.2.1.3.1.5s.1.4.1.7.1.3.2.4,0,.3.1.4Z"/><path class="cls-6" d="M67.2,34.2l-8-8.8V12.3a4.8,4.8,0,0,0-4.8-4.9h-37a4.9,4.9,0,0,0-4.9,4.9V49.2a4.9,4.9,0,0,0,4.9,4.9h37a4.8,4.8,0,0,0,4.8-4.9V35.5h7.4A.8.8,0,0,0,67.2,34.2Z"/><text class="cls-7" transform="translate(78.5 20.4) scale(0.94 1)">Google Reviews</text><text class="cls-8" transform="translate(77 53.8) scale(0.94 1)">4.9</text><path class="cls-9" d="M152,40.2l-4-2.9c-.3-.2-.4-.1-.7.1s-2.4,1.6-3.5,2.5a.5.5,0,0,0-.4.2c.4-1.5.9-3,1.4-4.5a.6.6,0,0,0-.3-.8L140.8,32h4.8c.3,0,.4-.1.5-.4s1-2.9,1.4-4.3l.2-.3,1.5,4.4a.7.7,0,0,0,.7.6h4.6a13.3,13.3,0,0,1-1.9,1.4l-1.9,1.5a.4.4,0,0,0-.2.6C151,37,151.5,38.5,152,40.2Z"/><path class="cls-9" d="M171.3,31.9h4.6c.4,0,.6-.1.7-.5l1.5-4.5,1.2,3.5a4.5,4.5,0,0,0,.6,1.4c.3.2.9.1,1.4.1H185l-.3.2-3.5,2.7c-.3.1-.3.3-.2.6s.9,3,1.4,4.6l-3.2-2.2c-.3-.3-.7-.7-1.1-.7s-.7.4-1.1.7l-3.2,2.2c.4-1.2.7-2.3,1.1-3.4l.3-1.2c.2-.3.1-.5-.2-.7l-3.5-2.6a.2.2,0,0,1-.2-.2Z"/><path class="cls-9" d="M128.1,40.1l1.5-4.6c.1-.3,0-.5-.3-.7L125.6,32h4.6a.7.7,0,0,0,.7-.5c.5-1.4.9-2.8,1.4-4.1s.1-.2.1-.4.7,2,1,2.9l.6,1.6c.1.4.2.5.6.5h4.8l-.5.3-3.3,2.5a.7.7,0,0,0-.3.8c.5,1.4.9,2.7,1.3,4s.1.3.1.5l-.3-.2-3.7-2.6c-.2-.2-.3-.2-.6,0l-3.3,2.4Z"/><path class="cls-9" d="M193.4,26.9c.5,1.6,1,3,1.5,4.5s.3.5.6.5h4.7l-.3.3-3.4,2.5a.6.6,0,0,0-.3.8c.5,1.4.9,2.8,1.3,4.2s.1.1.1.3l-3.3-2.3c-1-.7-.9-.7-1.9,0L189,40.1c.2-.5.3-.9.5-1.3s.6-2.2,1-3.3a.6.6,0,0,0-.2-.7L186.4,32h4.8a.5.5,0,0,0,.6-.4l1.5-4.4A.3.3,0,0,1,193.4,26.9Z"/><path class="cls-9" d="M169.7,32,166,34.8c-.3.2-.3.4-.2.8s.9,2.9,1.4,4.5l-.4-.2-3.6-2.6a.4.4,0,0,0-.6,0l-4,2.8a14.2,14.2,0,0,1,.7-2.2,21.7,21.7,0,0,1,.7-2.4c.1-.3.1-.5-.2-.7L156,32h4.7c.4,0,.5-.2.7-.5s.9-2.8,1.3-4.1.1-.2.2-.4l1.1,3.2a7.8,7.8,0,0,0,.5,1.4c0,.3.2.4.5.4h4.7Z"/><text class="cls-10" transform="translate(126.3 52.4) scale(0.94 1)">166 reviews</text></g></g></svg>