<svg width="36" height="36" viewBox="0 0 36 36" fill="none" xmlns="http://www.w3.org/2000/svg">
<path d="M18 21.75C20.1087 21.75 21.8182 20.0711 21.8182 18V11.75C21.8182 9.67891 20.1087 8 18 8C15.8913 8 14.1818 9.67891 14.1818 11.75V18C14.1818 20.0711 15.8913 21.75 18 21.75ZM24.3636 15.5H23.7273C23.3757 15.5 23.0909 15.7797 23.0909 16.125V18C23.0909 20.9219 20.526 23.2664 17.4913 22.9758C14.8464 22.7223 12.9091 20.3871 12.9091 17.7773V16.125C12.9091 15.7797 12.6243 15.5 12.2727 15.5H11.6364C11.2848 15.5 11 15.7797 11 16.125V17.6938C11 21.1953 13.5443 24.3168 17.0455 24.791V26.125H14.8182C14.4666 26.125 14.1818 26.4047 14.1818 26.75V27.375C14.1818 27.7203 14.4666 28 14.8182 28H21.1818C21.5334 28 21.8182 27.7203 21.8182 27.375V26.75C21.8182 26.4047 21.5334 26.125 21.1818 26.125H18.9545V24.8059C22.3635 24.3465 25 21.4727 25 18V16.125C25 15.7797 24.7152 15.5 24.3636 15.5Z" fill="#6B6B6B"/>
<circle cx="18" cy="18" r="17.5" stroke="black"/>
</svg>
