<?xml version="1.0" encoding="iso-8859-1"?>
<!-- Generator: Adobe Illustrator 16.0.0, SVG Export Plug-In . SVG Version: 6.00 Build 0)  -->
<!DOCTYPE svg PUBLIC "-//W3C//DTD SVG 1.1//EN" "http://www.w3.org/Graphics/SVG/1.1/DTD/svg11.dtd">
<svg version="1.1" id="Capa_1" xmlns="http://www.w3.org/2000/svg" xmlns:xlink="http://www.w3.org/1999/xlink" x="0px" y="0px"
	 width="422.826px" height="422.825px" viewBox="0 0 422.826 422.825" style="enable-background:new 0 0 422.826 422.825;"
	 xml:space="preserve">
<g>
	<g>
		<path d="M323.125,273.076c-3.863-1.712-8.463-2.61-13.34-2.61c-9.936,0-19.89,3.682-25.981,9.601l-25.302,24.519
			c-3.777,3.652-10.462,6.101-16.639,6.101c-2.649,0-4.973-0.469-6.742-1.357c-17.069-8.568-43.93-25.666-74.875-58.475
			c-27.473-29.166-40.507-49.123-46.598-60.732c-3.414-6.493,0.153-17.757,5.489-23.112l22.529-22.51
			c9.352-9.343,13.579-26.574,9.601-39.206l-25.322-80.411C122.102,12.651,109.097,0,93.931,0C72.96,0.708,43.489,8.214,22.308,40
			c-32.742,49.142-30.782,143.763,29.51,210.93c55.921,62.3,139.402,131.494,140.11,132.058
			c1.798,1.626,44.619,39.838,107.579,39.838c6.11,0,12.288-0.373,18.417-1.109c68.43-8.271,93.512-52.135,102.367-77.532
			c5.059-14.431-4.609-29.96-16.83-35.42L323.125,273.076z M406.75,339.449c-7.745,22.262-29.845,60.703-90.547,68.037
			c-5.547,0.67-11.15,1.005-16.696,1.005c-56.888,0-96.467-34.789-98.208-36.328c-0.822-0.679-83.395-69.061-138.809-130.806
			C8.547,181.267,4.331,92.842,34.232,47.965c17.796-26.698,42.716-33.029,60.492-33.631c7.249,0.029,15.367,8.004,17.538,14.86
			l25.322,80.411c2.372,7.573-0.45,19.134-6.072,24.748l-22.52,22.51c-9.189,9.208-14.621,27.454-8.052,39.933
			c6.541,12.421,20.301,33.583,48.855,63.887c32.369,34.329,60.76,52.373,78.872,61.458c3.72,1.864,8.29,2.859,13.206,2.859
			c9.974,0,20.147-3.883,26.593-10.117l25.303-24.519c3.433-3.337,9.858-5.575,15.988-5.575c2.859,0,5.45,0.488,7.525,1.396
			l80.306,35.696C403.738,324.608,409.064,332.88,406.75,339.449z"/>
		<path d="M247.056,147.033c-3.863-3.883-10.404-3.911-15.577-0.029l-57.596,43.079c-3.844,2.869-6.053,7.047-6.072,11.475
			c0,4.417,2.199,8.606,6.034,11.484l57.375,43.069c2.668,2.008,5.451,3.021,8.233,3.021c5.394,0,10.892-4.322,10.892-12.584v-8.739
			c0-1.32,1.062-2.391,2.391-2.391h73.269c9.228,0,16.734-7.508,16.734-16.734v-33.364c0-9.228-7.507-16.734-16.734-16.734h-73.269
			c-0.631,0-1.214-0.239-1.645-0.679c-0.431-0.44-0.669-1.014-0.65-1.654l0.077-9.582
			C250.575,151.652,248.663,148.668,247.056,147.033z M326.004,182.931c1.31,0,2.391,1.071,2.391,2.391v33.363
			c0,1.319-1.081,2.391-2.391,2.391h-73.269c-9.228,0-16.734,7.507-16.734,16.734c0,0,0,0.88,0,1.97s-3.423-0.592-7.649-3.768
			l-38.232-28.697c-4.227-3.175-4.217-8.31,0.01-11.465l38.346-28.688c4.227-3.165,7.65-4.676,7.641-3.385l-0.02,2.343
			c-0.058,4.485,1.664,8.702,4.801,11.877c3.137,3.184,7.354,4.934,11.838,4.934H326.004L326.004,182.931z"/>
	</g>
</g>
<g>
</g>
<g>
</g>
<g>
</g>
<g>
</g>
<g>
</g>
<g>
</g>
<g>
</g>
<g>
</g>
<g>
</g>
<g>
</g>
<g>
</g>
<g>
</g>
<g>
</g>
<g>
</g>
<g>
</g>
</svg>
